<svg width="447" height="213" viewBox="0 0 447 213" fill="none" xmlns="http://www.w3.org/2000/svg">
<path d="M0 181.416V125.83L445.305 168.047L443.959 181.638L425.389 179.878C406.819 178.117 369.68 174.596 331.644 180.122C312.618 182.969 293.379 187.972 274.14 192.975C254.9 197.978 235.661 202.982 216.635 205.829C178.6 211.355 141.46 207.834 104.543 202.062C67.6428 196.12 30.9235 188.351 12.5932 184.17L0 181.416Z" fill="url(#paint0_linear_2_138)"/>
<g filter="url(#filter0_d_2_138)">
<path d="M0 145.471V106.222L447 106.222V186.01L434 190.507C419 194.788 371.5 201.447 334.25 190.507C323.358 187.308 312.465 183.589 301.573 179.87C275.215 170.871 248.858 161.871 222.5 160.237C202.451 159.081 182.401 162.304 162.352 165.527C145.151 168.292 127.951 171.056 110.75 171.056C73.5012 171.056 36.2525 158.09 17.6269 151.607L17.625 151.606L0 145.471Z" fill="url(#paint1_linear_2_138)"/>
</g>
<g filter="url(#filter1_d_2_138)">
<path d="M447 108.998C443.021 111 437.464 113.603 429.958 116.741C429.384 116.982 428.792 117.229 428.184 117.484C408.62 125.678 371.685 141.147 334.75 144.172C296.667 147.411 217.5 129.22 217.5 129.22C217.5 129.22 144.5 114.051 106.25 114.051C64 114.051 31.5 118.944 11.0417 130.198L0 136.418V0H447V108.998Z" fill="url(#paint2_linear_2_138)"/>
</g>
<defs>
<filter id="filter0_d_2_138" x="-12" y="98.2221" width="471" height="114.244" filterUnits="userSpaceOnUse" color-interpolation-filters="sRGB">
<feFlood flood-opacity="0" result="BackgroundImageFix"/>
<feColorMatrix in="SourceAlpha" type="matrix" values="0 0 0 0 0 0 0 0 0 0 0 0 0 0 0 0 0 0 127 0" result="hardAlpha"/>
<feOffset dy="4"/>
<feGaussianBlur stdDeviation="6"/>
<feComposite in2="hardAlpha" operator="out"/>
<feColorMatrix type="matrix" values="0 0 0 0 0 0 0 0 0 0.141176 0 0 0 0 0.168627 0 0 0 0.2 0"/>
<feBlend mode="normal" in2="BackgroundImageFix" result="effect1_dropShadow_2_138"/>
<feBlend mode="normal" in="SourceGraphic" in2="effect1_dropShadow_2_138" result="shape"/>
</filter>
<filter id="filter1_d_2_138" x="-6" y="-2" width="459" height="156.558" filterUnits="userSpaceOnUse" color-interpolation-filters="sRGB">
<feFlood flood-opacity="0" result="BackgroundImageFix"/>
<feColorMatrix in="SourceAlpha" type="matrix" values="0 0 0 0 0 0 0 0 0 0 0 0 0 0 0 0 0 0 127 0" result="hardAlpha"/>
<feOffset dy="4"/>
<feGaussianBlur stdDeviation="3"/>
<feComposite in2="hardAlpha" operator="out"/>
<feColorMatrix type="matrix" values="0 0 0 0 0 0 0 0 0 0 0 0 0 0 0 0 0 0 0.15 0"/>
<feBlend mode="normal" in2="BackgroundImageFix" result="effect1_dropShadow_2_138"/>
<feBlend mode="normal" in="SourceGraphic" in2="effect1_dropShadow_2_138" result="shape"/>
</filter>
<linearGradient id="paint0_linear_2_138" x1="215.838" y1="213.874" x2="218.939" y2="141.202" gradientUnits="userSpaceOnUse">
<stop stop-color="#00B4D8"/>
<stop offset="1" stop-color="#006C82"/>
</linearGradient>
<linearGradient id="paint1_linear_2_138" x1="240.5" y1="209.957" x2="230.441" y2="78.2974" gradientUnits="userSpaceOnUse">
<stop stop-color="#0090AD"/>
<stop offset="1" stop-color="#006C82"/>
</linearGradient>
<linearGradient id="paint2_linear_2_138" x1="220.5" y1="-21" x2="248.779" y2="171.969" gradientUnits="userSpaceOnUse">
<stop offset="0.0234448" stop-color="#00242B"/>
<stop offset="1" stop-color="#006C82"/>
</linearGradient>
</defs>
</svg>
